<svg width="56" height="57" viewBox="0 0 56 57" fill="none" xmlns="http://www.w3.org/2000/svg">
<rect x="2" y="2.54492" width="52" height="52" rx="26" fill="#E9F4FA"/>
<rect x="2" y="2.54492" width="52" height="52" rx="26" stroke="#BADDF0" stroke-width="4"/>
<path d="M37.3332 39.0449V36.7116C37.3332 35.4739 36.8415 34.2869 35.9663 33.4118C35.0912 32.5366 33.9042 32.0449 32.6665 32.0449H23.3332C22.0955 32.0449 20.9085 32.5366 20.0333 33.4118C19.1582 34.2869 18.6665 35.4739 18.6665 36.7116V39.0449M32.6665 22.7116C32.6665 25.2889 30.5772 27.3783 27.9998 27.3783C25.4225 27.3783 23.3332 25.2889 23.3332 22.7116C23.3332 20.1343 25.4225 18.0449 27.9998 18.0449C30.5772 18.0449 32.6665 20.1343 32.6665 22.7116Z" stroke="#2091D0" stroke-width="2.33333" stroke-linecap="round" stroke-linejoin="round"/>
</svg>
